<svg xmlns="http://www.w3.org/2000/svg" width="281" height="47" viewBox="0 0 281 47"><g><g><path fill="#f2c0dc" d="M0 20.751v-.694c.166-1.097.1-2.22.338-3.31.716-3.272 2.074-6.226 4.288-8.783 2.932-3.387 6.686-5.395 10.923-6.651 1.607-.477 3.242-.691 4.908-.736.078-.002.155 0 .216-.058h206.911c.16.18.114.4.114.608.003 8.474-.002 16.948.004 25.422.003 3.238-.748 6.306-2.197 9.18-1.68 3.333-4.202 5.924-7.41 7.846-2.614 1.566 27.554 2.574 24.567 3.14-.905.171-1.842.17-2.766.223-.19.011-.387-.053-.567.056h-.232c-.236-.117-.489-.03-.733-.057-55.201 0-182.365 0-237.565-.004-.266 0-.54.062-.8-.054V21.445a.906.906 0 0 0 0-.694z"/></g><g><path fill="#ce5f96" d="M8 20.751v-.694c.166-1.097.1-2.22.338-3.31.715-3.272 2.073-6.226 4.288-8.783 2.932-3.387 6.686-5.395 10.923-6.651 1.607-.477 3.242-.691 4.909-.736.077-.002.154 0 .215-.058h206.911c.16.18.114.4.115.608.002 8.474-.003 16.948.003 25.422.003 3.238-.748 6.306-2.197 9.18-1.68 3.333-4.202 5.924-7.41 7.846-2.614 1.566-5.446 2.574-8.433 3.14-.905.171 31.158.17 30.234.223-.19.011-.387-.053-.567.056h-.232c-.236-.117-.489-.03-.733-.057-55.2 0-182.365 0-237.565-.004-.266 0-.54.062-.8-.054V21.445a.907.907 0 0 0 0-.694z"/></g><g><path fill="#b6cb47" d="M17 20.751v-.694c.165-1.097.1-2.22.338-3.31.715-3.272 2.074-6.226 4.288-8.783 2.932-3.387 6.686-5.395 10.923-6.651 1.607-.477 3.242-.691 4.908-.736.078-.002.155 0 .216-.058h206.911c.16.18.114.4.114.608.003 8.474-.002 16.948.004 25.422.003 3.238-.748 6.306-2.197 9.18-1.68 3.333-4.202 5.924-7.41 7.846-2.614 1.566-5.446 2.574-8.433 3.14-.905.171-1.842.17-2.766.223-.19.011-.387-.053-.567.056h-.232c-.236-.117-.489-.03-.733-.057-55.201 0-149.365 0-204.565-.004-.266 0-.54.062-.8-.054V21.445a.907.907 0 0 0 0-.694z"/></g><g><path fill="#552752" d="M25 20.751v-.694c.166-1.097.1-2.22.338-3.31.716-3.272 2.073-6.226 4.288-8.783 2.932-3.387 6.687-5.395 10.923-6.651 1.607-.477 3.242-.691 4.908-.736.078-.002.155 0 .216-.058h234.911c.16.18.114.4.114.608.003 8.474-.002 16.948.004 25.422.003 3.238-.748 6.306-2.197 9.18-1.68 3.333-4.202 5.924-7.41 7.846-2.614 1.566-5.446 2.574-8.433 3.14-.905.171-1.842.17-2.766.223-.19.011-.387-.053-.567.056h-.232c-.236-.117-.489-.03-.733-.057-55.201 0-177.365 0-232.565-.004-.266 0-.54.062-.8-.054V21.445a.907.907 0 0 0 0-.694z"/></g></g></svg>