<svg xmlns="http://www.w3.org/2000/svg" width="35" height="28" viewBox="0 0 35 28"><g><g><path fill="#a29da2" d="M17.503 28.14l-.718-.39c-.29-.156-7.098-3.851-9.338-5.504C2.721 18.773-.133 13.708-.002 9.03c.086-3.027 1.454-5.558 3.854-7.126C5.224 1.006 6.794.55 8.515.55c3.772 0 7.368 2.212 9.048 3.418 1.66-1.21 5.201-3.418 8.946-3.418 1.71 0 3.274.455 4.646 1.353 2.4 1.568 3.768 4.099 3.854 7.126.132 4.678-2.723 9.743-7.452 13.218-2.237 1.65-9.046 5.346-9.335 5.502zM8.515 3.466c-1.14 0-2.126.282-3.014.865-2.017 1.317-2.49 3.326-2.531 4.78-.104 3.69 2.354 7.93 6.262 10.803 1.675 1.237 6.448 3.89 8.271 4.891 1.823-1.001 6.597-3.654 8.269-4.888 3.911-2.875 6.37-7.116 6.265-10.807-.041-1.453-.514-3.462-2.53-4.78-.89-.582-1.87-.864-2.998-.864-3.264 0-6.848 2.491-7.954 3.45l-.976.848-.984-.839c-.04-.033-4.127-3.459-8.08-3.459z"/></g><g><path fill="#a29da2" d="M27.047 10.125c4.392 0 7.953 3.547 7.953 7.922s-3.56 7.922-7.953 7.922c-4.393 0-7.953-3.547-7.953-7.922s3.56-7.922 7.953-7.922z"/></g><g><path fill="#fff" d="M31.818 16.868h-3.58v-3.58h-2.386v3.58h-3.58v2.387h3.58v3.58h2.386v-3.58h3.58z"/></g></g></svg>