<svg xmlns="http://www.w3.org/2000/svg" width="40" height="40" viewBox="0 0 81 80"><g><g><path fill="#fff" d="M56.476 64c4.384 0 7.97 3.6 7.97 8s-3.586 8-7.97 8-7.971-3.6-7.971-8 3.587-8 7.97-8zM80.389 0v8h-7.971L58.07 38.4l5.58 9.6c.398 1.2.797 2.8.797 4 0 4.4-3.587 8-7.971 8H8.65v-8h46.232c.398 0 .797-.4.797-.8v-.4L52.092 44H22.599c-3.188 0-5.58-1.6-6.775-4L1.476 14C.68 13.2.68 12.8.68 12c0-2.4 1.594-4 3.986-4H63.65l3.586-8zM16.62 64c4.384 0 7.971 3.6 7.971 8s-3.587 8-7.97 8c-4.385 0-7.972-3.6-7.972-8s3.587-8 7.971-8z"/></g></g></svg>